<svg width="643" height="643" viewBox="0 0 643 643" fill="none" xmlns="http://www.w3.org/2000/svg">
<path d="M222.615 505.052C223.444 509.594 225.145 513.262 227.196 514.966C232.052 518.984 239.148 517.601 274.047 505.809C290.798 500.145 306.764 495.516 309.498 495.516C312.232 495.516 320.768 498.267 328.46 501.616C345.037 508.837 353.558 509.419 370.891 504.469C376.94 502.751 385.301 501.339 389.474 501.339C395.073 501.339 398.446 500.407 402.459 497.758C405.44 495.778 418.92 489.227 432.414 483.199C476.139 463.648 505.658 445.479 525.579 425.825C538.797 412.796 541.821 406.259 540.324 393.957C537.343 369.528 535.176 377.346 555.548 339.014C567.123 317.22 569.769 302.502 564.185 290.928C562.542 287.536 556.479 280.592 550.43 275.132C537.764 263.748 536.703 260.749 540.105 246.059C541.356 240.629 542.388 233.102 542.388 229.332C542.388 223.421 541.661 221.718 537.197 217.117C534.347 214.162 530.741 211.352 529.185 210.857C527.629 210.377 523.747 206.111 520.533 201.38C513.961 191.699 507.562 187.418 492.222 182.483C474.729 176.849 470.89 173.996 461.496 159.598C453.673 147.587 452.219 147.019 432.065 148.227C415.416 149.232 414.732 149.145 410.922 145.869C408.247 143.554 406.444 139.944 405.237 134.47C403.521 126.71 403.303 126.448 398.228 126.026C395.349 125.779 386.857 127.322 379.354 129.447C371.85 131.573 359.505 134.834 351.9 136.697C344.295 138.561 336.123 140.861 333.724 141.822C330.83 142.972 316.347 143.7 290.827 143.962C245.605 144.457 231.689 146.291 217.831 153.629C201.443 162.276 177.494 189.952 167.068 212.226C162.808 221.354 162.197 221.951 147.859 230.657C121.831 246.481 109.064 263.573 109.064 282.586C109.064 291.001 106.345 295.863 93.4321 310.625C71.9549 335.142 70.748 344.954 87.4702 358.944C110.242 378.001 111.056 379.544 112.641 406.71C114.633 440.82 117.352 443.776 151.742 449.06C171.067 452.03 180.504 455.495 183.252 460.634C184.125 462.265 185.783 468.525 186.931 474.537C190.232 491.803 190.116 491.687 206.707 493.318C212.029 493.842 217.497 495.065 218.849 496.054C220.201 497.044 221.888 501.092 222.615 505.052Z" fill="#FCFCFB"/>
</svg>
