<svg width="643" height="643" viewBox="0 0 643 643" fill="none" xmlns="http://www.w3.org/2000/svg">
<path d="M442 161.648C428.914 155.578 415.073 150.954 400.526 147.818C392.001 145.985 377.487 144.714 363 144.224C349.302 143.761 335.629 143.996 327.066 145.114C317.465 146.375 307.947 148.05 298.5 150.142C287.576 152.562 276.748 155.539 266 159.079C255.597 162.506 245.269 166.46 235 170.947C227.383 174.276 219.8 177.898 212.243 181.815C205.188 185.471 198.447 189.175 192 192.942C183.887 197.683 176.242 202.525 169.026 207.5C162.322 212.122 155.99 216.86 150 221.739C140.353 229.598 131.593 237.823 123.599 246.526C117.172 253.523 111.239 260.829 105.737 268.5C100.951 275.173 96.4915 282.123 92.3161 289.388C86.6415 299.26 82.361 310.358 79.4754 322C76.9387 332.234 75.4801 342.889 75.1003 353.5C74.6792 365.263 75.5838 376.973 77.8149 388C80.5633 401.584 85.3248 414.13 92.1011 424.46C95.8255 430.127 103.354 438.546 111.142 446.149C117.368 452.227 123.76 457.784 128.509 460.999C134.813 465.271 142.064 469.345 150 473.142C159.646 477.756 170.303 481.958 181.5 485.6C190.003 488.366 198.818 490.809 207.737 492.864C222.24 496.205 237.02 498.52 251.189 499.53C256.368 499.899 265.389 500.035 276 499.992C284.997 499.956 295.137 499.791 305.049 499.53C324.335 499.022 342.756 498.152 350.205 497.162C359.594 495.916 368.685 494.485 377.5 492.864C393.919 489.844 409.376 486.163 424 481.785C432.776 479.157 441.251 476.279 449.453 473.142C461.204 468.647 472.394 463.621 483.105 458.04C491.755 453.53 498.535 449.776 504.364 446.149C514.219 440.018 521.356 434.25 530.216 425.805C534.954 421.286 539.219 416.691 543.019 412C549.266 404.289 554.258 396.319 558.035 388C564.08 374.686 567.013 360.478 567 345.004C566.992 332.592 564.912 319.591 560.624 305.5C557.67 295.795 553.668 285.572 548.575 274.67C542.995 262.725 536.868 251.544 530.216 241.149C522.325 228.818 513.695 217.591 504.364 207.5C495.487 197.9 485.975 189.329 475.861 181.815C465.227 173.913 453.927 167.18 442 161.648Z" fill="#FCFCFB"/>
</svg>
